# xmcd
#
# Track frame offsets:
#	150
#	13562
#	30037
#	47912
#	60955
#	76890
#	91350
#	105365
#	122217
#	137930
#
# Disc length: 2057 seconds
#
# Revision: 1
# Processed by: cddbd v1.5PL3 Copyright (c) Steve Scherf et al.
# Submitted via: CDex 1.50Beta5
#
DISCID=6f08070a
DTITLE=守屋浩 - 僕は泣いちっち
DYEAR=1900
DGENRE=Pop
TTITLE0=僕は泣いちっち
TTITLE1=有難や節
TTITLE2=大学数え唄
TTITLE3=よせよ恋なんて
TTITLE4=癪な雨だぜ
TTITLE5=月のエレジー
TTITLE6=夜空の笛
TTITLE7=東京へ戻っておいでよ
TTITLE8=長いお下げ髪
TTITLE9=ボン.ボヤージ
EXTD=
EXTT0=
EXTT1=
EXTT2=
EXTT3=
EXTT4=
EXTT5=
EXTT6=
EXTT7=
EXTT8=
EXTT9=
PLAYORDER=
